<mxfile host="app.diagrams.net" agent="Mozilla/5.0 (Windows NT 10.0; Win64; x64) AppleWebKit/537.36 (KHTML, like Gecko) Chrome/130.0.0.0 Safari/537.36" version="24.8.4">
  <diagram name="Page-1" id="O68f2Q7Yjam5VTw899kQ">
    <mxGraphModel dx="281" dy="301" grid="1" gridSize="10" guides="1" tooltips="1" connect="1" arrows="1" fold="1" page="1" pageScale="1" pageWidth="850" pageHeight="1100" math="0" shadow="0">
      <root>
        <mxCell id="0" />
        <mxCell id="1" parent="0" />
        <mxCell id="OuCYZ1kZ1UgPZIDO1jOh-1" value="&lt;font style=&quot;font-size: 11px;&quot;&gt;Manager&lt;/font&gt;" style="shape=umlActor;verticalLabelPosition=bottom;verticalAlign=top;html=1;outlineConnect=0;" parent="1" vertex="1">
          <mxGeometry x="80" y="70" width="20" height="40" as="geometry" />
        </mxCell>
        <mxCell id="OuCYZ1kZ1UgPZIDO1jOh-2" value="&lt;div&gt;&lt;span style=&quot;font-size: 11px;&quot;&gt;&amp;lt;&amp;lt; view Layer &amp;gt;&amp;gt;&lt;/span&gt;&lt;/div&gt;&lt;span style=&quot;font-size: 11px;&quot;&gt;Package&amp;nbsp;&lt;/span&gt;" style="rounded=0;whiteSpace=wrap;html=1;" parent="1" vertex="1">
          <mxGeometry x="185" y="65" width="100" height="30" as="geometry" />
        </mxCell>
        <mxCell id="OuCYZ1kZ1UgPZIDO1jOh-3" value="&lt;font style=&quot;font-size: 11px;&quot;&gt;&amp;lt;&amp;lt; controller &amp;gt;&amp;gt;&lt;/font&gt;&lt;div&gt;&lt;font style=&quot;font-size: 11px;&quot;&gt;PackageHandler&lt;/font&gt;&lt;/div&gt;" style="rounded=0;whiteSpace=wrap;html=1;" parent="1" vertex="1">
          <mxGeometry x="340" y="65" width="110" height="30" as="geometry" />
        </mxCell>
        <mxCell id="OuCYZ1kZ1UgPZIDO1jOh-8" value="" style="endArrow=none;dashed=1;html=1;dashPattern=1 3;strokeWidth=2;rounded=0;entryX=0.5;entryY=1;entryDx=0;entryDy=0;" parent="1" edge="1">
          <mxGeometry width="50" height="50" relative="1" as="geometry">
            <mxPoint x="85" y="1780" as="sourcePoint" />
            <mxPoint x="84.5" y="130" as="targetPoint" />
          </mxGeometry>
        </mxCell>
        <mxCell id="OuCYZ1kZ1UgPZIDO1jOh-12" value="" style="endArrow=classic;html=1;rounded=0;" parent="1" edge="1">
          <mxGeometry width="50" height="50" relative="1" as="geometry">
            <mxPoint x="240" y="171" as="sourcePoint" />
            <mxPoint x="390" y="171" as="targetPoint" />
          </mxGeometry>
        </mxCell>
        <mxCell id="OuCYZ1kZ1UgPZIDO1jOh-10" value="" style="endArrow=classic;html=1;rounded=0;" parent="1" edge="1">
          <mxGeometry width="50" height="50" relative="1" as="geometry">
            <mxPoint x="85" y="157.64999999999998" as="sourcePoint" />
            <mxPoint x="230" y="158.36" as="targetPoint" />
          </mxGeometry>
        </mxCell>
        <mxCell id="OuCYZ1kZ1UgPZIDO1jOh-15" value="&lt;font style=&quot;font-size: 11px;&quot;&gt;create package&lt;/font&gt;" style="text;html=1;align=center;verticalAlign=middle;whiteSpace=wrap;rounded=0;" parent="1" vertex="1">
          <mxGeometry x="249" y="140" width="120" height="30" as="geometry" />
        </mxCell>
        <mxCell id="sbfKvWTtOLKOCPMKF29I-3" value="&lt;font style=&quot;font-size: 11px;&quot;&gt;Manager&lt;/font&gt;" style="rounded=0;whiteSpace=wrap;html=1;" parent="1" vertex="1">
          <mxGeometry x="685" y="100" width="70" height="24" as="geometry" />
        </mxCell>
        <mxCell id="sbfKvWTtOLKOCPMKF29I-4" value="&lt;font style=&quot;font-size: 11px;&quot;&gt;:person&lt;/font&gt;" style="rounded=0;whiteSpace=wrap;html=1;" parent="1" vertex="1">
          <mxGeometry x="490" y="95" width="70" height="24" as="geometry" />
        </mxCell>
        <mxCell id="sbfKvWTtOLKOCPMKF29I-6" value="&lt;font style=&quot;font-size: 11px;&quot;&gt;:personDA&lt;/font&gt;" style="rounded=0;whiteSpace=wrap;html=1;" parent="1" vertex="1">
          <mxGeometry x="580" y="65" width="70" height="24" as="geometry" />
        </mxCell>
        <mxCell id="sbfKvWTtOLKOCPMKF29I-7" value="&lt;font style=&quot;font-size: 11px;&quot;&gt;:managerDA&lt;/font&gt;" style="rounded=0;whiteSpace=wrap;html=1;" parent="1" vertex="1">
          <mxGeometry x="768" y="71" width="70" height="24" as="geometry" />
        </mxCell>
        <mxCell id="sbfKvWTtOLKOCPMKF29I-9" value="" style="endArrow=none;dashed=1;html=1;rounded=0;" parent="1" source="sbfKvWTtOLKOCPMKF29I-44" edge="1">
          <mxGeometry width="50" height="50" relative="1" as="geometry">
            <mxPoint x="530" y="490" as="sourcePoint" />
            <mxPoint x="530" y="119" as="targetPoint" />
          </mxGeometry>
        </mxCell>
        <mxCell id="sbfKvWTtOLKOCPMKF29I-11" value="&lt;span style=&quot;font-size: 11px;&quot;&gt;create package&lt;/span&gt;" style="text;html=1;align=center;verticalAlign=middle;whiteSpace=wrap;rounded=0;" parent="1" vertex="1">
          <mxGeometry x="408" y="149.75" width="120" height="31.25" as="geometry" />
        </mxCell>
        <mxCell id="sbfKvWTtOLKOCPMKF29I-12" value="" style="endArrow=none;dashed=1;html=1;rounded=0;" parent="1" edge="1">
          <mxGeometry width="50" height="50" relative="1" as="geometry">
            <mxPoint x="618" y="300" as="sourcePoint" />
            <mxPoint x="618" y="90" as="targetPoint" />
          </mxGeometry>
        </mxCell>
        <mxCell id="sbfKvWTtOLKOCPMKF29I-13" value="" style="endArrow=classic;html=1;rounded=0;" parent="1" edge="1">
          <mxGeometry width="50" height="50" relative="1" as="geometry">
            <mxPoint x="533" y="210.73" as="sourcePoint" />
            <mxPoint x="717" y="210.73" as="targetPoint" />
          </mxGeometry>
        </mxCell>
        <mxCell id="sbfKvWTtOLKOCPMKF29I-15" value="" style="endArrow=none;dashed=1;html=1;rounded=0;" parent="1" source="sbfKvWTtOLKOCPMKF29I-49" edge="1">
          <mxGeometry width="50" height="50" relative="1" as="geometry">
            <mxPoint x="720" y="521" as="sourcePoint" />
            <mxPoint x="720" y="130" as="targetPoint" />
          </mxGeometry>
        </mxCell>
        <mxCell id="sbfKvWTtOLKOCPMKF29I-16" value="&lt;font style=&quot;font-size: 11px;&quot;&gt;package&lt;/font&gt;" style="rounded=0;whiteSpace=wrap;html=1;" parent="1" vertex="1">
          <mxGeometry x="900" y="294" width="70" height="24" as="geometry" />
        </mxCell>
        <mxCell id="sbfKvWTtOLKOCPMKF29I-17" value="&lt;font style=&quot;font-size: 11px;&quot;&gt;:packageDA&lt;/font&gt;" style="rounded=0;whiteSpace=wrap;html=1;" parent="1" vertex="1">
          <mxGeometry x="1000" y="270" width="70" height="24" as="geometry" />
        </mxCell>
        <mxCell id="sbfKvWTtOLKOCPMKF29I-18" value="" style="endArrow=none;dashed=1;html=1;rounded=0;" parent="1" source="sbfKvWTtOLKOCPMKF29I-36" edge="1">
          <mxGeometry width="50" height="50" relative="1" as="geometry">
            <mxPoint x="394.69" y="466" as="sourcePoint" />
            <mxPoint x="394.69" y="95" as="targetPoint" />
          </mxGeometry>
        </mxCell>
        <mxCell id="sbfKvWTtOLKOCPMKF29I-21" value="" style="endArrow=none;dashed=1;html=1;rounded=0;" parent="1" edge="1">
          <mxGeometry width="50" height="50" relative="1" as="geometry">
            <mxPoint x="802.5" y="301.5" as="sourcePoint" />
            <mxPoint x="802.5" y="91.5" as="targetPoint" />
          </mxGeometry>
        </mxCell>
        <mxCell id="sbfKvWTtOLKOCPMKF29I-24" value="" style="endArrow=none;dashed=1;html=1;rounded=0;" parent="1" source="OuCYZ1kZ1UgPZIDO1jOh-13" edge="1">
          <mxGeometry width="50" height="50" relative="1" as="geometry">
            <mxPoint x="234.57" y="457" as="sourcePoint" />
            <mxPoint x="234.57" y="86" as="targetPoint" />
          </mxGeometry>
        </mxCell>
        <mxCell id="sbfKvWTtOLKOCPMKF29I-26" value="" style="endArrow=none;dashed=1;html=1;rounded=0;" parent="1" source="UV9iQ9PNpnjXZsfX_OM_-67" target="OuCYZ1kZ1UgPZIDO1jOh-13" edge="1">
          <mxGeometry width="50" height="50" relative="1" as="geometry">
            <mxPoint x="235" y="1290" as="sourcePoint" />
            <mxPoint x="234.57" y="86" as="targetPoint" />
          </mxGeometry>
        </mxCell>
        <mxCell id="OuCYZ1kZ1UgPZIDO1jOh-13" value="" style="rounded=0;whiteSpace=wrap;html=1;" parent="1" vertex="1">
          <mxGeometry x="230" y="150" width="10" height="230" as="geometry" />
        </mxCell>
        <mxCell id="sbfKvWTtOLKOCPMKF29I-28" value="&lt;span style=&quot;font-size: 11px;&quot;&gt;create&amp;nbsp; package&lt;/span&gt;" style="text;html=1;align=center;verticalAlign=middle;whiteSpace=wrap;rounded=0;" parent="1" vertex="1">
          <mxGeometry x="565" y="184" width="120" height="31.5" as="geometry" />
        </mxCell>
        <mxCell id="sbfKvWTtOLKOCPMKF29I-29" value="&lt;font style=&quot;font-size: 11px;&quot;&gt;package details successfully created&lt;/font&gt;" style="text;html=1;align=center;verticalAlign=middle;whiteSpace=wrap;rounded=0;fillColor=#FFFFFF;" parent="1" vertex="1">
          <mxGeometry x="467.5" y="334.75" width="205" height="30" as="geometry" />
        </mxCell>
        <mxCell id="sbfKvWTtOLKOCPMKF29I-30" value="&lt;span style=&quot;font-size: 11px;&quot;&gt;create package detail&lt;/span&gt;" style="text;html=1;align=center;verticalAlign=middle;whiteSpace=wrap;rounded=0;" parent="1" vertex="1">
          <mxGeometry x="510" y="270.5" width="120" height="31" as="geometry" />
        </mxCell>
        <mxCell id="sbfKvWTtOLKOCPMKF29I-32" value="" style="endArrow=classic;html=1;rounded=0;entryX=0;entryY=0.75;entryDx=0;entryDy=0;" parent="1" edge="1">
          <mxGeometry width="50" height="50" relative="1" as="geometry">
            <mxPoint x="729" y="308" as="sourcePoint" />
            <mxPoint x="899" y="307.9999999999999" as="targetPoint" />
          </mxGeometry>
        </mxCell>
        <mxCell id="sbfKvWTtOLKOCPMKF29I-33" value="" style="endArrow=none;dashed=1;html=1;rounded=0;" parent="1" source="UV9iQ9PNpnjXZsfX_OM_-56" edge="1">
          <mxGeometry width="50" height="50" relative="1" as="geometry">
            <mxPoint x="934" y="900" as="sourcePoint" />
            <mxPoint x="934.47" y="324" as="targetPoint" />
          </mxGeometry>
        </mxCell>
        <mxCell id="sbfKvWTtOLKOCPMKF29I-37" value="" style="endArrow=none;dashed=1;html=1;rounded=0;" parent="1" source="UV9iQ9PNpnjXZsfX_OM_-34" target="sbfKvWTtOLKOCPMKF29I-36" edge="1">
          <mxGeometry width="50" height="50" relative="1" as="geometry">
            <mxPoint x="395" y="903.5294117647059" as="sourcePoint" />
            <mxPoint x="394.69" y="95" as="targetPoint" />
          </mxGeometry>
        </mxCell>
        <mxCell id="sbfKvWTtOLKOCPMKF29I-36" value="" style="rounded=0;whiteSpace=wrap;html=1;" parent="1" vertex="1">
          <mxGeometry x="392" y="160" width="10" height="220" as="geometry" />
        </mxCell>
        <mxCell id="sbfKvWTtOLKOCPMKF29I-40" value="" style="endArrow=classic;html=1;rounded=0;entryX=0.063;entryY=0.62;entryDx=0;entryDy=0;entryPerimeter=0;" parent="1" edge="1">
          <mxGeometry width="50" height="50" relative="1" as="geometry">
            <mxPoint x="88.68" y="282.25" as="sourcePoint" />
            <mxPoint x="229.3099999999999" y="281.5000000000001" as="targetPoint" />
          </mxGeometry>
        </mxCell>
        <mxCell id="sbfKvWTtOLKOCPMKF29I-41" value="" style="endArrow=none;dashed=1;html=1;rounded=0;" parent="1" edge="1">
          <mxGeometry width="50" height="50" relative="1" as="geometry">
            <mxPoint x="1040" y="1760" as="sourcePoint" />
            <mxPoint x="1040" y="294" as="targetPoint" />
          </mxGeometry>
        </mxCell>
        <mxCell id="sbfKvWTtOLKOCPMKF29I-42" value="" style="endArrow=classic;html=1;rounded=0;" parent="1" edge="1">
          <mxGeometry width="50" height="50" relative="1" as="geometry">
            <mxPoint x="940" y="355.74" as="sourcePoint" />
            <mxPoint x="1040" y="355.74" as="targetPoint" />
          </mxGeometry>
        </mxCell>
        <mxCell id="sbfKvWTtOLKOCPMKF29I-43" value="add package&amp;nbsp;&lt;div&gt;details&lt;/div&gt;" style="edgeLabel;html=1;align=center;verticalAlign=middle;resizable=0;points=[];" parent="1" vertex="1" connectable="0">
          <mxGeometry x="987" y="338.0005263157895" as="geometry" />
        </mxCell>
        <mxCell id="sbfKvWTtOLKOCPMKF29I-45" value="" style="endArrow=none;dashed=1;html=1;rounded=0;" parent="1" source="CiNBgsA2vVy60cbmpa4H-27" target="sbfKvWTtOLKOCPMKF29I-44" edge="1">
          <mxGeometry width="50" height="50" relative="1" as="geometry">
            <mxPoint x="530" y="550" as="sourcePoint" />
            <mxPoint x="530" y="119" as="targetPoint" />
          </mxGeometry>
        </mxCell>
        <mxCell id="sbfKvWTtOLKOCPMKF29I-44" value="" style="rounded=0;whiteSpace=wrap;html=1;" parent="1" vertex="1">
          <mxGeometry x="526" y="170" width="10" height="99.12" as="geometry" />
        </mxCell>
        <mxCell id="OuCYZ1kZ1UgPZIDO1jOh-18" value="" style="endArrow=classic;html=1;rounded=0;" parent="1" edge="1">
          <mxGeometry width="50" height="50" relative="1" as="geometry">
            <mxPoint x="400" y="175" as="sourcePoint" />
            <mxPoint x="528" y="175.5" as="targetPoint" />
          </mxGeometry>
        </mxCell>
        <mxCell id="sbfKvWTtOLKOCPMKF29I-48" value="" style="endArrow=none;dashed=1;html=1;rounded=0;" parent="1" edge="1">
          <mxGeometry width="50" height="50" relative="1" as="geometry">
            <mxPoint x="617" y="520.5000000000001" as="sourcePoint" />
            <mxPoint x="617" y="302" as="targetPoint" />
          </mxGeometry>
        </mxCell>
        <mxCell id="sbfKvWTtOLKOCPMKF29I-50" value="" style="endArrow=none;dashed=1;html=1;rounded=0;" parent="1" source="CiNBgsA2vVy60cbmpa4H-32" target="sbfKvWTtOLKOCPMKF29I-49" edge="1">
          <mxGeometry width="50" height="50" relative="1" as="geometry">
            <mxPoint x="720" y="1290" as="sourcePoint" />
            <mxPoint x="720" y="150" as="targetPoint" />
          </mxGeometry>
        </mxCell>
        <mxCell id="sbfKvWTtOLKOCPMKF29I-49" value="" style="rounded=0;whiteSpace=wrap;html=1;" parent="1" vertex="1">
          <mxGeometry x="715" y="200" width="10" height="170" as="geometry" />
        </mxCell>
        <mxCell id="sbfKvWTtOLKOCPMKF29I-54" value="" style="endArrow=none;dashed=1;html=1;rounded=0;" parent="1" edge="1">
          <mxGeometry width="50" height="50" relative="1" as="geometry">
            <mxPoint x="800" y="1770" as="sourcePoint" />
            <mxPoint x="802.5" y="314" as="targetPoint" />
          </mxGeometry>
        </mxCell>
        <mxCell id="sbfKvWTtOLKOCPMKF29I-55" value="" style="rounded=0;whiteSpace=wrap;html=1;" parent="1" vertex="1">
          <mxGeometry x="930" y="330" width="10" height="40" as="geometry" />
        </mxCell>
        <mxCell id="UV9iQ9PNpnjXZsfX_OM_-2" value="" style="endArrow=classic;html=1;rounded=0;" parent="1" edge="1">
          <mxGeometry width="50" height="50" relative="1" as="geometry">
            <mxPoint x="96.5" y="928" as="sourcePoint" />
            <mxPoint x="230.5" y="928" as="targetPoint" />
          </mxGeometry>
        </mxCell>
        <mxCell id="UV9iQ9PNpnjXZsfX_OM_-4" value="" style="endArrow=classic;html=1;rounded=0;entryX=0;entryY=0.1;entryDx=0;entryDy=0;entryPerimeter=0;" parent="1" edge="1">
          <mxGeometry width="50" height="50" relative="1" as="geometry">
            <mxPoint x="246.5" y="946" as="sourcePoint" />
            <mxPoint x="396.5" y="946" as="targetPoint" />
          </mxGeometry>
        </mxCell>
        <mxCell id="UV9iQ9PNpnjXZsfX_OM_-8" value="&amp;nbsp;&lt;font style=&quot;font-size: 11px;&quot;&gt;create&lt;/font&gt;&lt;font style=&quot;font-size: 11px;&quot;&gt;&amp;nbsp;&lt;/font&gt;&lt;font style=&quot;font-size: 11px;&quot;&gt;package&lt;/font&gt;" style="text;html=1;align=center;verticalAlign=middle;whiteSpace=wrap;rounded=0;" parent="1" vertex="1">
          <mxGeometry x="100" y="130" width="120" height="30" as="geometry" />
        </mxCell>
        <mxCell id="UV9iQ9PNpnjXZsfX_OM_-30" value="" style="swimlane;startSize=0;" parent="1" vertex="1">
          <mxGeometry x="54" y="450" width="1060" height="360" as="geometry" />
        </mxCell>
        <mxCell id="UV9iQ9PNpnjXZsfX_OM_-31" value="" style="rounded=0;whiteSpace=wrap;html=1;" parent="UV9iQ9PNpnjXZsfX_OM_-30" vertex="1">
          <mxGeometry x="176" y="40.5" width="10" height="287" as="geometry" />
        </mxCell>
        <mxCell id="UV9iQ9PNpnjXZsfX_OM_-50" value="" style="rounded=0;whiteSpace=wrap;html=1;" parent="UV9iQ9PNpnjXZsfX_OM_-30" vertex="1">
          <mxGeometry x="875" y="218" width="10" height="70" as="geometry" />
        </mxCell>
        <mxCell id="UV9iQ9PNpnjXZsfX_OM_-90" value="&lt;span style=&quot;font-size: 11px;&quot;&gt;loop for all package&lt;/span&gt;" style="text;html=1;align=center;verticalAlign=middle;whiteSpace=wrap;rounded=0;fillColor=#FFFFFF;" parent="UV9iQ9PNpnjXZsfX_OM_-30" vertex="1">
          <mxGeometry x="2" y="3" width="120" height="15" as="geometry" />
        </mxCell>
        <mxCell id="UV9iQ9PNpnjXZsfX_OM_-92" value="" style="endArrow=none;html=1;rounded=0;entryX=0.12;entryY=0.004;entryDx=0;entryDy=0;entryPerimeter=0;" parent="UV9iQ9PNpnjXZsfX_OM_-30" target="UV9iQ9PNpnjXZsfX_OM_-30" edge="1">
          <mxGeometry width="50" height="50" relative="1" as="geometry">
            <mxPoint x="140" y="20" as="sourcePoint" />
            <mxPoint x="159" y="10" as="targetPoint" />
            <Array as="points">
              <mxPoint x="140" y="10" />
            </Array>
          </mxGeometry>
        </mxCell>
        <mxCell id="UV9iQ9PNpnjXZsfX_OM_-88" value="" style="endArrow=none;html=1;rounded=0;exitX=-0.002;exitY=0.103;exitDx=0;exitDy=0;exitPerimeter=0;" parent="UV9iQ9PNpnjXZsfX_OM_-30" edge="1">
          <mxGeometry width="50" height="50" relative="1" as="geometry">
            <mxPoint x="-7.105427357601002e-15" y="20.660000000000082" as="sourcePoint" />
            <mxPoint x="142.12" y="20" as="targetPoint" />
          </mxGeometry>
        </mxCell>
        <mxCell id="UV9iQ9PNpnjXZsfX_OM_-18" value="" style="endArrow=classic;html=1;rounded=0;" parent="UV9iQ9PNpnjXZsfX_OM_-30" edge="1">
          <mxGeometry width="50" height="50" relative="1" as="geometry">
            <mxPoint x="482" y="111" as="sourcePoint" />
            <mxPoint x="662" y="111" as="targetPoint" />
          </mxGeometry>
        </mxCell>
        <mxCell id="rGSSU83Y0eP1_PP-NvvM-2" value="" style="html=1;labelBackgroundColor=#ffffff;startArrow=none;startFill=0;startSize=6;endArrow=classic;endFill=1;endSize=6;jettySize=auto;orthogonalLoop=1;strokeWidth=1;dashed=1;fontSize=14;rounded=0;" parent="UV9iQ9PNpnjXZsfX_OM_-30" edge="1">
          <mxGeometry width="60" height="60" relative="1" as="geometry">
            <mxPoint x="341" y="300.5" as="sourcePoint" />
            <mxPoint x="191" y="300" as="targetPoint" />
          </mxGeometry>
        </mxCell>
        <mxCell id="CiNBgsA2vVy60cbmpa4H-25" value="" style="endArrow=classic;html=1;rounded=0;" parent="UV9iQ9PNpnjXZsfX_OM_-30" edge="1">
          <mxGeometry width="50" height="50" relative="1" as="geometry">
            <mxPoint x="355" y="70" as="sourcePoint" />
            <mxPoint x="475" y="71" as="targetPoint" />
          </mxGeometry>
        </mxCell>
        <mxCell id="CiNBgsA2vVy60cbmpa4H-26" value="" style="endArrow=classic;html=1;rounded=0;" parent="UV9iQ9PNpnjXZsfX_OM_-30" edge="1">
          <mxGeometry width="50" height="50" relative="1" as="geometry">
            <mxPoint x="482" y="80" as="sourcePoint" />
            <mxPoint x="558" y="80" as="targetPoint" />
          </mxGeometry>
        </mxCell>
        <mxCell id="z5FpJeLoiE-vXYj7heix-23" value="&lt;span style=&quot;font-size: 11px;&quot;&gt;create package&lt;/span&gt;" style="text;html=1;align=center;verticalAlign=middle;whiteSpace=wrap;rounded=0;fillColor=#FFFFFF;" parent="UV9iQ9PNpnjXZsfX_OM_-30" vertex="1">
          <mxGeometry x="355" y="50" width="120" height="11.5" as="geometry" />
        </mxCell>
        <mxCell id="CiNBgsA2vVy60cbmpa4H-31" value="&lt;span style=&quot;font-size: 11px;&quot;&gt;create&amp;nbsp; package&lt;/span&gt;" style="text;html=1;align=center;verticalAlign=middle;whiteSpace=wrap;rounded=0;" parent="UV9iQ9PNpnjXZsfX_OM_-30" vertex="1">
          <mxGeometry x="523" y="84" width="120" height="31.5" as="geometry" />
        </mxCell>
        <mxCell id="CiNBgsA2vVy60cbmpa4H-36" value="&lt;span style=&quot;font-size: 11px;&quot;&gt;package successfully created&lt;/span&gt;" style="text;html=1;align=center;verticalAlign=middle;whiteSpace=wrap;rounded=0;" parent="UV9iQ9PNpnjXZsfX_OM_-30" vertex="1">
          <mxGeometry x="353" y="121" width="120" height="30" as="geometry" />
        </mxCell>
        <mxCell id="CiNBgsA2vVy60cbmpa4H-37" value="" style="html=1;labelBackgroundColor=#ffffff;startArrow=none;startFill=0;startSize=6;endArrow=classic;endFill=1;endSize=6;jettySize=auto;orthogonalLoop=1;strokeWidth=1;dashed=1;fontSize=14;rounded=0;" parent="UV9iQ9PNpnjXZsfX_OM_-30" edge="1">
          <mxGeometry width="60" height="60" relative="1" as="geometry">
            <mxPoint x="466" y="154" as="sourcePoint" />
            <mxPoint x="348" y="154" as="targetPoint" />
          </mxGeometry>
        </mxCell>
        <mxCell id="UV9iQ9PNpnjXZsfX_OM_-16" value="" style="html=1;labelBackgroundColor=#ffffff;startArrow=none;startFill=0;startSize=6;endArrow=classic;endFill=1;endSize=6;jettySize=auto;orthogonalLoop=1;strokeWidth=1;dashed=1;fontSize=14;rounded=0;" parent="UV9iQ9PNpnjXZsfX_OM_-30" edge="1">
          <mxGeometry width="60" height="60" relative="1" as="geometry">
            <mxPoint x="340" y="160.5" as="sourcePoint" />
            <mxPoint x="190" y="160" as="targetPoint" />
          </mxGeometry>
        </mxCell>
        <mxCell id="CiNBgsA2vVy60cbmpa4H-38" value="&lt;span style=&quot;font-size: 11px;&quot;&gt;package successfully created&lt;/span&gt;" style="text;html=1;align=center;verticalAlign=middle;whiteSpace=wrap;rounded=0;" parent="UV9iQ9PNpnjXZsfX_OM_-30" vertex="1">
          <mxGeometry x="206" y="127" width="120" height="30" as="geometry" />
        </mxCell>
        <mxCell id="CiNBgsA2vVy60cbmpa4H-39" value="enter package details" style="edgeLabel;html=1;align=center;verticalAlign=middle;resizable=0;points=[];" parent="UV9iQ9PNpnjXZsfX_OM_-30" vertex="1" connectable="0">
          <mxGeometry x="256.0003933902992" y="184.0001971600277" as="geometry">
            <mxPoint x="3" y="1" as="offset" />
          </mxGeometry>
        </mxCell>
        <mxCell id="CiNBgsA2vVy60cbmpa4H-40" value="" style="endArrow=classic;html=1;rounded=0;entryX=0.063;entryY=0.62;entryDx=0;entryDy=0;entryPerimeter=0;" parent="UV9iQ9PNpnjXZsfX_OM_-30" edge="1">
          <mxGeometry width="50" height="50" relative="1" as="geometry">
            <mxPoint x="195.69" y="200.31999999999994" as="sourcePoint" />
            <mxPoint x="336.3199999999999" y="199.57000000000016" as="targetPoint" />
          </mxGeometry>
        </mxCell>
        <mxCell id="CiNBgsA2vVy60cbmpa4H-41" value="" style="endArrow=classic;html=1;rounded=0;" parent="UV9iQ9PNpnjXZsfX_OM_-30" edge="1">
          <mxGeometry width="50" height="50" relative="1" as="geometry">
            <mxPoint x="346" y="207.56999999999994" as="sourcePoint" />
            <mxPoint x="654" y="208.06999999999994" as="targetPoint" />
          </mxGeometry>
        </mxCell>
        <mxCell id="CiNBgsA2vVy60cbmpa4H-47" value="&lt;span style=&quot;font-size: 11px;&quot;&gt;package successfully created&lt;/span&gt;" style="text;html=1;align=center;verticalAlign=middle;whiteSpace=wrap;rounded=0;" parent="UV9iQ9PNpnjXZsfX_OM_-30" vertex="1">
          <mxGeometry x="496" y="119" width="151" height="30" as="geometry" />
        </mxCell>
        <mxCell id="CiNBgsA2vVy60cbmpa4H-48" value="" style="html=1;labelBackgroundColor=#ffffff;startArrow=none;startFill=0;startSize=6;endArrow=classic;endFill=1;endSize=6;jettySize=auto;orthogonalLoop=1;strokeWidth=1;dashed=1;fontSize=14;rounded=0;exitX=0.022;exitY=0.379;exitDx=0;exitDy=0;exitPerimeter=0;" parent="UV9iQ9PNpnjXZsfX_OM_-30" edge="1">
          <mxGeometry width="60" height="60" relative="1" as="geometry">
            <mxPoint x="657.25" y="144" as="sourcePoint" />
            <mxPoint x="485.75" y="144.19000000000005" as="targetPoint" />
          </mxGeometry>
        </mxCell>
        <mxCell id="CiNBgsA2vVy60cbmpa4H-49" value="&lt;span style=&quot;font-size: 11px;&quot;&gt;create package detail&lt;/span&gt;" style="text;html=1;align=center;verticalAlign=middle;whiteSpace=wrap;rounded=0;" parent="UV9iQ9PNpnjXZsfX_OM_-30" vertex="1">
          <mxGeometry x="426" y="183" width="120" height="31" as="geometry" />
        </mxCell>
        <mxCell id="CiNBgsA2vVy60cbmpa4H-50" value="" style="endArrow=classic;html=1;rounded=0;" parent="UV9iQ9PNpnjXZsfX_OM_-30" edge="1">
          <mxGeometry width="50" height="50" relative="1" as="geometry">
            <mxPoint x="676" y="127" as="sourcePoint" />
            <mxPoint x="751" y="127.5" as="targetPoint" />
          </mxGeometry>
        </mxCell>
        <mxCell id="CiNBgsA2vVy60cbmpa4H-51" value="&lt;span style=&quot;font-size: 11px;&quot;&gt;add package&lt;/span&gt;" style="text;html=1;align=center;verticalAlign=middle;whiteSpace=wrap;rounded=0;" parent="UV9iQ9PNpnjXZsfX_OM_-30" vertex="1">
          <mxGeometry x="647" y="95.75" width="120" height="31.25" as="geometry" />
        </mxCell>
        <mxCell id="CiNBgsA2vVy60cbmpa4H-34" value="" style="endArrow=classic;html=1;rounded=0;exitX=1;exitY=0.436;exitDx=0;exitDy=0;exitPerimeter=0;" parent="UV9iQ9PNpnjXZsfX_OM_-30" edge="1">
          <mxGeometry width="50" height="50" relative="1" as="geometry">
            <mxPoint x="671" y="229.04000000000008" as="sourcePoint" />
            <mxPoint x="876" y="229" as="targetPoint" />
          </mxGeometry>
        </mxCell>
        <mxCell id="CiNBgsA2vVy60cbmpa4H-35" value="&lt;span style=&quot;font-size: 11px;&quot;&gt;create package details&lt;/span&gt;" style="text;html=1;align=center;verticalAlign=middle;whiteSpace=wrap;rounded=0;fillColor=#FFFFFF;" parent="UV9iQ9PNpnjXZsfX_OM_-30" vertex="1">
          <mxGeometry x="716" y="214" width="120" height="11.5" as="geometry" />
        </mxCell>
        <mxCell id="CiNBgsA2vVy60cbmpa4H-52" value="&lt;font style=&quot;font-size: 11px;&quot;&gt;&lt;br&gt;&lt;span style=&quot;color: rgb(0, 0, 0); font-family: Helvetica; font-style: normal; font-variant-ligatures: normal; font-variant-caps: normal; font-weight: 400; letter-spacing: normal; orphans: 2; text-align: center; text-indent: 0px; text-transform: none; widows: 2; word-spacing: 0px; -webkit-text-stroke-width: 0px; white-space: normal; background-color: rgb(251, 251, 251); text-decoration-thickness: initial; text-decoration-style: initial; text-decoration-color: initial; float: none; display: inline !important;&quot;&gt;package details successfully created&lt;/span&gt;&lt;br&gt;&lt;/font&gt;" style="text;html=1;align=center;verticalAlign=middle;whiteSpace=wrap;rounded=0;fillColor=#FFFFFF;" parent="UV9iQ9PNpnjXZsfX_OM_-30" vertex="1">
          <mxGeometry x="716" y="247.25" width="120" height="11.5" as="geometry" />
        </mxCell>
        <mxCell id="CiNBgsA2vVy60cbmpa4H-53" value="" style="html=1;labelBackgroundColor=#ffffff;startArrow=none;startFill=0;startSize=6;endArrow=classic;endFill=1;endSize=6;jettySize=auto;orthogonalLoop=1;strokeWidth=1;dashed=1;fontSize=14;rounded=0;" parent="UV9iQ9PNpnjXZsfX_OM_-30" edge="1">
          <mxGeometry width="60" height="60" relative="1" as="geometry">
            <mxPoint x="875" y="278.5" as="sourcePoint" />
            <mxPoint x="675" y="278" as="targetPoint" />
          </mxGeometry>
        </mxCell>
        <mxCell id="UV9iQ9PNpnjXZsfX_OM_-29" value="" style="endArrow=classic;html=1;rounded=0;" parent="UV9iQ9PNpnjXZsfX_OM_-30" edge="1">
          <mxGeometry width="50" height="50" relative="1" as="geometry">
            <mxPoint x="886" y="252" as="sourcePoint" />
            <mxPoint x="986" y="252" as="targetPoint" />
          </mxGeometry>
        </mxCell>
        <mxCell id="CiNBgsA2vVy60cbmpa4H-63" value="" style="html=1;labelBackgroundColor=#ffffff;startArrow=none;startFill=0;startSize=6;endArrow=classic;endFill=1;endSize=6;jettySize=auto;orthogonalLoop=1;strokeWidth=1;dashed=1;fontSize=14;rounded=0;" parent="UV9iQ9PNpnjXZsfX_OM_-30" edge="1">
          <mxGeometry width="60" height="60" relative="1" as="geometry">
            <mxPoint x="658" y="288.5" as="sourcePoint" />
            <mxPoint x="353" y="288" as="targetPoint" />
          </mxGeometry>
        </mxCell>
        <mxCell id="CiNBgsA2vVy60cbmpa4H-64" value="&lt;font style=&quot;font-size: 11px;&quot;&gt;package details successfully created&lt;/font&gt;" style="text;html=1;align=center;verticalAlign=middle;whiteSpace=wrap;rounded=0;fillColor=#FFFFFF;" parent="UV9iQ9PNpnjXZsfX_OM_-30" vertex="1">
          <mxGeometry x="396" y="256" width="205" height="30" as="geometry" />
        </mxCell>
        <mxCell id="CiNBgsA2vVy60cbmpa4H-65" value="&lt;font style=&quot;font-size: 11px;&quot;&gt;package details successfully&lt;/font&gt;&lt;div&gt;&lt;font style=&quot;font-size: 11px;&quot;&gt;&amp;nbsp;created&lt;/font&gt;&lt;/div&gt;" style="text;html=1;align=center;verticalAlign=middle;whiteSpace=wrap;rounded=0;fillColor=#FFFFFF;" parent="UV9iQ9PNpnjXZsfX_OM_-30" vertex="1">
          <mxGeometry x="199.25" y="260" width="133.5" height="30" as="geometry" />
        </mxCell>
        <mxCell id="CiNBgsA2vVy60cbmpa4H-66" value="add package&amp;nbsp;&lt;div&gt;details&lt;/div&gt;" style="edgeLabel;html=1;align=center;verticalAlign=middle;resizable=0;points=[];" parent="UV9iQ9PNpnjXZsfX_OM_-30" vertex="1" connectable="0">
          <mxGeometry x="936" y="225.50052631578956" as="geometry" />
        </mxCell>
        <mxCell id="CiNBgsA2vVy60cbmpa4H-67" value="&lt;span style=&quot;font-size: 11px;&quot;&gt;add package&lt;/span&gt;" style="text;html=1;align=center;verticalAlign=middle;whiteSpace=wrap;rounded=0;" parent="UV9iQ9PNpnjXZsfX_OM_-30" vertex="1">
          <mxGeometry x="460" y="45.13" width="120" height="31.25" as="geometry" />
        </mxCell>
        <mxCell id="UV9iQ9PNpnjXZsfX_OM_-13" value="&lt;font style=&quot;font-size: 11px;&quot;&gt;&amp;nbsp;create package&lt;/font&gt;" style="text;html=1;align=center;verticalAlign=middle;whiteSpace=wrap;rounded=0;" parent="UV9iQ9PNpnjXZsfX_OM_-30" vertex="1">
          <mxGeometry x="206" y="20" width="120" height="30" as="geometry" />
        </mxCell>
        <mxCell id="UV9iQ9PNpnjXZsfX_OM_-14" value="" style="endArrow=classic;html=1;rounded=0;entryX=0;entryY=0.1;entryDx=0;entryDy=0;entryPerimeter=0;" parent="UV9iQ9PNpnjXZsfX_OM_-30" edge="1">
          <mxGeometry width="50" height="50" relative="1" as="geometry">
            <mxPoint x="190" y="50" as="sourcePoint" />
            <mxPoint x="340" y="49.99999999999994" as="targetPoint" />
          </mxGeometry>
        </mxCell>
        <mxCell id="UV9iQ9PNpnjXZsfX_OM_-34" value="" style="rounded=0;whiteSpace=wrap;html=1;" parent="UV9iQ9PNpnjXZsfX_OM_-30" vertex="1">
          <mxGeometry x="338" y="45" width="10" height="270" as="geometry" />
        </mxCell>
        <mxCell id="CiNBgsA2vVy60cbmpa4H-27" value="" style="rounded=0;whiteSpace=wrap;html=1;" parent="UV9iQ9PNpnjXZsfX_OM_-30" vertex="1">
          <mxGeometry x="472" y="61.5" width="10" height="105" as="geometry" />
        </mxCell>
        <mxCell id="CiNBgsA2vVy60cbmpa4H-32" value="" style="rounded=0;whiteSpace=wrap;html=1;" parent="UV9iQ9PNpnjXZsfX_OM_-30" vertex="1">
          <mxGeometry x="661" y="100.5" width="10" height="196" as="geometry" />
        </mxCell>
        <mxCell id="UV9iQ9PNpnjXZsfX_OM_-35" value="" style="endArrow=none;dashed=1;html=1;rounded=0;" parent="1" source="UV9iQ9PNpnjXZsfX_OM_-54" target="UV9iQ9PNpnjXZsfX_OM_-34" edge="1">
          <mxGeometry width="50" height="50" relative="1" as="geometry">
            <mxPoint x="395" y="903.5294117647059" as="sourcePoint" />
            <mxPoint x="397" y="380" as="targetPoint" />
          </mxGeometry>
        </mxCell>
        <mxCell id="UV9iQ9PNpnjXZsfX_OM_-38" value="" style="endArrow=none;dashed=1;html=1;rounded=0;entryX=0.5;entryY=1;entryDx=0;entryDy=0;" parent="1" target="CiNBgsA2vVy60cbmpa4H-27" edge="1">
          <mxGeometry width="50" height="50" relative="1" as="geometry">
            <mxPoint x="533.0889274433915" y="956" as="sourcePoint" />
            <mxPoint x="529.9685039370077" y="544.9999999999999" as="targetPoint" />
          </mxGeometry>
        </mxCell>
        <mxCell id="UV9iQ9PNpnjXZsfX_OM_-41" value="" style="endArrow=none;dashed=1;html=1;rounded=0;" parent="1" edge="1">
          <mxGeometry width="50" height="50" relative="1" as="geometry">
            <mxPoint x="620" y="1770" as="sourcePoint" />
            <mxPoint x="617" y="520" as="targetPoint" />
          </mxGeometry>
        </mxCell>
        <mxCell id="UV9iQ9PNpnjXZsfX_OM_-53" value="" style="rounded=0;whiteSpace=wrap;html=1;" parent="1" vertex="1">
          <mxGeometry x="230.5" y="923.19" width="10" height="312.81" as="geometry" />
        </mxCell>
        <mxCell id="UV9iQ9PNpnjXZsfX_OM_-55" value="" style="endArrow=none;dashed=1;html=1;rounded=0;" parent="1" target="UV9iQ9PNpnjXZsfX_OM_-54" edge="1">
          <mxGeometry width="50" height="50" relative="1" as="geometry">
            <mxPoint x="397" y="1780" as="sourcePoint" />
            <mxPoint x="397" y="540" as="targetPoint" />
          </mxGeometry>
        </mxCell>
        <mxCell id="UV9iQ9PNpnjXZsfX_OM_-54" value="" style="rounded=0;whiteSpace=wrap;html=1;" parent="1" vertex="1">
          <mxGeometry x="397.5" y="936" width="10" height="270" as="geometry" />
        </mxCell>
        <mxCell id="UV9iQ9PNpnjXZsfX_OM_-57" value="" style="endArrow=none;dashed=1;html=1;rounded=0;" parent="1" source="UV9iQ9PNpnjXZsfX_OM_-85" target="UV9iQ9PNpnjXZsfX_OM_-56" edge="1">
          <mxGeometry width="50" height="50" relative="1" as="geometry">
            <mxPoint x="934" y="1160" as="sourcePoint" />
            <mxPoint x="934.47" y="324" as="targetPoint" />
          </mxGeometry>
        </mxCell>
        <mxCell id="UV9iQ9PNpnjXZsfX_OM_-56" value="" style="rounded=0;whiteSpace=wrap;html=1;" parent="1" vertex="1">
          <mxGeometry x="935.5" y="1096" width="10" height="80" as="geometry" />
        </mxCell>
        <mxCell id="UV9iQ9PNpnjXZsfX_OM_-59" value="" style="endArrow=classic;html=1;rounded=0;" parent="1" edge="1">
          <mxGeometry width="50" height="50" relative="1" as="geometry">
            <mxPoint x="945.5" y="1131" as="sourcePoint" />
            <mxPoint x="1043.5" y="1131" as="targetPoint" />
          </mxGeometry>
        </mxCell>
        <mxCell id="UV9iQ9PNpnjXZsfX_OM_-63" value="" style="html=1;labelBackgroundColor=#ffffff;startArrow=none;startFill=0;startSize=6;endArrow=classic;endFill=1;endSize=6;jettySize=auto;orthogonalLoop=1;strokeWidth=1;dashed=1;fontSize=14;rounded=0;" parent="1" edge="1">
          <mxGeometry width="60" height="60" relative="1" as="geometry">
            <mxPoint x="926" y="1156" as="sourcePoint" />
            <mxPoint x="736" y="1156" as="targetPoint" />
          </mxGeometry>
        </mxCell>
        <mxCell id="UV9iQ9PNpnjXZsfX_OM_-66" value="" style="endArrow=classic;html=1;rounded=0;entryX=0.004;entryY=0.094;entryDx=0;entryDy=0;entryPerimeter=0;" parent="1" edge="1">
          <mxGeometry width="50" height="50" relative="1" as="geometry">
            <mxPoint x="89.96" y="1347.71" as="sourcePoint" />
            <mxPoint x="230.04000000000008" y="1347.424" as="targetPoint" />
          </mxGeometry>
        </mxCell>
        <mxCell id="UV9iQ9PNpnjXZsfX_OM_-69" value="" style="endArrow=classic;html=1;rounded=0;entryX=0;entryY=0.1;entryDx=0;entryDy=0;entryPerimeter=0;" parent="1" edge="1">
          <mxGeometry width="50" height="50" relative="1" as="geometry">
            <mxPoint x="240" y="1364" as="sourcePoint" />
            <mxPoint x="390" y="1364" as="targetPoint" />
          </mxGeometry>
        </mxCell>
        <mxCell id="UV9iQ9PNpnjXZsfX_OM_-70" value="" style="rounded=0;whiteSpace=wrap;html=1;" parent="1" vertex="1">
          <mxGeometry x="392" y="1343.91" width="10" height="265.09" as="geometry" />
        </mxCell>
        <mxCell id="UV9iQ9PNpnjXZsfX_OM_-72" value="&lt;span style=&quot;font-size: 11px;&quot;&gt;update package&amp;nbsp;&lt;/span&gt;&lt;div&gt;&lt;span style=&quot;font-size: 11px;&quot;&gt;(&lt;/span&gt;&lt;span style=&quot;font-size: 11px; background-color: initial;&quot;&gt;price, name,&amp;nbsp;&lt;/span&gt;&lt;div&gt;&lt;span style=&quot;font-size: 11px;&quot;&gt;description)&lt;/span&gt;&lt;/div&gt;&lt;/div&gt;" style="text;html=1;align=center;verticalAlign=middle;whiteSpace=wrap;rounded=0;fillColor=#FFFFFF;" parent="1" vertex="1">
          <mxGeometry x="405" y="1317" width="118" height="50" as="geometry" />
        </mxCell>
        <mxCell id="UV9iQ9PNpnjXZsfX_OM_-80" value="" style="endArrow=classic;html=1;rounded=0;" parent="1" edge="1">
          <mxGeometry width="50" height="50" relative="1" as="geometry">
            <mxPoint x="940" y="1520" as="sourcePoint" />
            <mxPoint x="1040" y="1520" as="targetPoint" />
          </mxGeometry>
        </mxCell>
        <mxCell id="UV9iQ9PNpnjXZsfX_OM_-83" value="" style="html=1;labelBackgroundColor=#ffffff;startArrow=none;startFill=0;startSize=6;endArrow=classic;endFill=1;endSize=6;jettySize=auto;orthogonalLoop=1;strokeWidth=1;dashed=1;fontSize=14;rounded=0;" parent="1" edge="1">
          <mxGeometry width="60" height="60" relative="1" as="geometry">
            <mxPoint x="390" y="1589.5" as="sourcePoint" />
            <mxPoint x="240" y="1589" as="targetPoint" />
          </mxGeometry>
        </mxCell>
        <mxCell id="UV9iQ9PNpnjXZsfX_OM_-87" value="" style="endArrow=none;dashed=1;html=1;rounded=0;" parent="1" target="UV9iQ9PNpnjXZsfX_OM_-85" edge="1">
          <mxGeometry width="50" height="50" relative="1" as="geometry">
            <mxPoint x="930" y="1760" as="sourcePoint" />
            <mxPoint x="935" y="810" as="targetPoint" />
          </mxGeometry>
        </mxCell>
        <mxCell id="UV9iQ9PNpnjXZsfX_OM_-85" value="" style="rounded=0;whiteSpace=wrap;html=1;" parent="1" vertex="1">
          <mxGeometry x="928" y="1471" width="10" height="94" as="geometry" />
        </mxCell>
        <mxCell id="z5FpJeLoiE-vXYj7heix-2" value="&lt;span style=&quot;font-size: 11px;&quot;&gt;create package details&lt;/span&gt;" style="text;html=1;align=center;verticalAlign=middle;whiteSpace=wrap;rounded=0;fillColor=#FFFFFF;" parent="1" vertex="1">
          <mxGeometry x="750" y="290.5" width="120" height="11.5" as="geometry" />
        </mxCell>
        <mxCell id="z5FpJeLoiE-vXYj7heix-4" value="" style="html=1;labelBackgroundColor=#ffffff;startArrow=none;startFill=0;startSize=6;endArrow=classic;endFill=1;endSize=6;jettySize=auto;orthogonalLoop=1;strokeWidth=1;dashed=1;fontSize=14;rounded=0;" parent="1" edge="1">
          <mxGeometry width="60" height="60" relative="1" as="geometry">
            <mxPoint x="930" y="354.5" as="sourcePoint" />
            <mxPoint x="730" y="354" as="targetPoint" />
          </mxGeometry>
        </mxCell>
        <mxCell id="z5FpJeLoiE-vXYj7heix-5" value="&lt;font style=&quot;font-size: 11px;&quot;&gt;&lt;br&gt;&lt;span style=&quot;color: rgb(0, 0, 0); font-family: Helvetica; font-style: normal; font-variant-ligatures: normal; font-variant-caps: normal; font-weight: 400; letter-spacing: normal; orphans: 2; text-align: center; text-indent: 0px; text-transform: none; widows: 2; word-spacing: 0px; -webkit-text-stroke-width: 0px; white-space: normal; background-color: rgb(251, 251, 251); text-decoration-thickness: initial; text-decoration-style: initial; text-decoration-color: initial; float: none; display: inline !important;&quot;&gt;package details successfully created&lt;/span&gt;&lt;br&gt;&lt;/font&gt;" style="text;html=1;align=center;verticalAlign=middle;whiteSpace=wrap;rounded=0;fillColor=#FFFFFF;" parent="1" vertex="1">
          <mxGeometry x="768" y="323.25" width="120" height="11.5" as="geometry" />
        </mxCell>
        <mxCell id="z5FpJeLoiE-vXYj7heix-6" value="" style="html=1;labelBackgroundColor=#ffffff;startArrow=none;startFill=0;startSize=6;endArrow=classic;endFill=1;endSize=6;jettySize=auto;orthogonalLoop=1;strokeWidth=1;dashed=1;fontSize=14;rounded=0;" parent="1" edge="1">
          <mxGeometry width="60" height="60" relative="1" as="geometry">
            <mxPoint x="390" y="370.5" as="sourcePoint" />
            <mxPoint x="240" y="370" as="targetPoint" />
          </mxGeometry>
        </mxCell>
        <mxCell id="rGSSU83Y0eP1_PP-NvvM-5" value="" style="html=1;labelBackgroundColor=#ffffff;startArrow=none;startFill=0;startSize=6;endArrow=classic;endFill=1;endSize=6;jettySize=auto;orthogonalLoop=1;strokeWidth=1;dashed=1;fontSize=14;rounded=0;" parent="1" edge="1">
          <mxGeometry width="60" height="60" relative="1" as="geometry">
            <mxPoint x="520" y="249" as="sourcePoint" />
            <mxPoint x="402" y="249" as="targetPoint" />
          </mxGeometry>
        </mxCell>
        <mxCell id="rGSSU83Y0eP1_PP-NvvM-6" value="&lt;span style=&quot;font-size: 11px;&quot;&gt;package successfully created&lt;/span&gt;" style="text;html=1;align=center;verticalAlign=middle;whiteSpace=wrap;rounded=0;" parent="1" vertex="1">
          <mxGeometry x="405.5" y="214.12" width="120" height="30" as="geometry" />
        </mxCell>
        <mxCell id="rGSSU83Y0eP1_PP-NvvM-8" value="&lt;span style=&quot;font-size: 11px;&quot;&gt;package successfully created&lt;/span&gt;" style="text;html=1;align=center;verticalAlign=middle;whiteSpace=wrap;rounded=0;" parent="1" vertex="1">
          <mxGeometry x="257" y="220" width="120" height="30" as="geometry" />
        </mxCell>
        <mxCell id="rGSSU83Y0eP1_PP-NvvM-9" value="" style="html=1;labelBackgroundColor=#ffffff;startArrow=none;startFill=0;startSize=6;endArrow=classic;endFill=1;endSize=6;jettySize=auto;orthogonalLoop=1;strokeWidth=1;dashed=1;fontSize=14;rounded=0;" parent="1" edge="1">
          <mxGeometry width="60" height="60" relative="1" as="geometry">
            <mxPoint x="390" y="252.62" as="sourcePoint" />
            <mxPoint x="240" y="252.12" as="targetPoint" />
          </mxGeometry>
        </mxCell>
        <mxCell id="rGSSU83Y0eP1_PP-NvvM-11" value="" style="html=1;labelBackgroundColor=#ffffff;startArrow=none;startFill=0;startSize=6;endArrow=classic;endFill=1;endSize=6;jettySize=auto;orthogonalLoop=1;strokeWidth=1;dashed=1;fontSize=14;rounded=0;" parent="1" edge="1">
          <mxGeometry width="60" height="60" relative="1" as="geometry">
            <mxPoint x="715" y="360.5" as="sourcePoint" />
            <mxPoint x="410" y="360" as="targetPoint" />
          </mxGeometry>
        </mxCell>
        <mxCell id="rGSSU83Y0eP1_PP-NvvM-13" value="" style="endArrow=classic;html=1;rounded=0;" parent="1" edge="1">
          <mxGeometry width="50" height="50" relative="1" as="geometry">
            <mxPoint x="404" y="296.5" as="sourcePoint" />
            <mxPoint x="712" y="297" as="targetPoint" />
          </mxGeometry>
        </mxCell>
        <mxCell id="rGSSU83Y0eP1_PP-NvvM-15" value="" style="endArrow=classic;html=1;rounded=0;entryX=0.063;entryY=0.62;entryDx=0;entryDy=0;entryPerimeter=0;" parent="1" edge="1">
          <mxGeometry width="50" height="50" relative="1" as="geometry">
            <mxPoint x="246.69" y="289.75" as="sourcePoint" />
            <mxPoint x="387.3199999999999" y="289.0000000000001" as="targetPoint" />
          </mxGeometry>
        </mxCell>
        <mxCell id="rGSSU83Y0eP1_PP-NvvM-16" value="enter package details" style="edgeLabel;html=1;align=center;verticalAlign=middle;resizable=0;points=[];" parent="1" vertex="1" connectable="0">
          <mxGeometry x="315.0003933902992" y="278.0001971600277" as="geometry">
            <mxPoint x="3" y="1" as="offset" />
          </mxGeometry>
        </mxCell>
        <mxCell id="rGSSU83Y0eP1_PP-NvvM-18" value="&lt;font style=&quot;font-size: 11px;&quot;&gt;package details successfully&lt;/font&gt;&lt;div&gt;&lt;font style=&quot;font-size: 11px;&quot;&gt;&amp;nbsp;created&lt;/font&gt;&lt;/div&gt;" style="text;html=1;align=center;verticalAlign=middle;whiteSpace=wrap;rounded=0;fillColor=#FFFFFF;" parent="1" vertex="1">
          <mxGeometry x="251.5" y="331" width="133.5" height="30" as="geometry" />
        </mxCell>
        <mxCell id="rGSSU83Y0eP1_PP-NvvM-20" value="" style="endArrow=classic;html=1;rounded=0;" parent="1" edge="1">
          <mxGeometry width="50" height="50" relative="1" as="geometry">
            <mxPoint x="536" y="182.99999999999997" as="sourcePoint" />
            <mxPoint x="620" y="183" as="targetPoint" />
          </mxGeometry>
        </mxCell>
        <mxCell id="rGSSU83Y0eP1_PP-NvvM-21" value="&lt;span style=&quot;font-size: 11px;&quot;&gt;add package&lt;/span&gt;" style="text;html=1;align=center;verticalAlign=middle;whiteSpace=wrap;rounded=0;" parent="1" vertex="1">
          <mxGeometry x="517" y="154" width="120" height="31.25" as="geometry" />
        </mxCell>
        <mxCell id="rGSSU83Y0eP1_PP-NvvM-23" value="&lt;span style=&quot;font-size: 11px;&quot;&gt;add package&lt;/span&gt;" style="text;html=1;align=center;verticalAlign=middle;whiteSpace=wrap;rounded=0;" parent="1" vertex="1">
          <mxGeometry x="703" y="207" width="120" height="31.25" as="geometry" />
        </mxCell>
        <mxCell id="rGSSU83Y0eP1_PP-NvvM-24" value="" style="endArrow=classic;html=1;rounded=0;" parent="1" edge="1">
          <mxGeometry width="50" height="50" relative="1" as="geometry">
            <mxPoint x="727" y="232" as="sourcePoint" />
            <mxPoint x="802" y="232.5" as="targetPoint" />
          </mxGeometry>
        </mxCell>
        <mxCell id="V8SG-uhgvCbZZo700kkN-1" value="" style="endArrow=none;dashed=1;html=1;rounded=0;" parent="1" target="UV9iQ9PNpnjXZsfX_OM_-67" edge="1">
          <mxGeometry width="50" height="50" relative="1" as="geometry">
            <mxPoint x="237" y="1770" as="sourcePoint" />
            <mxPoint x="235" y="380" as="targetPoint" />
          </mxGeometry>
        </mxCell>
        <mxCell id="UV9iQ9PNpnjXZsfX_OM_-67" value="" style="rounded=0;whiteSpace=wrap;html=1;" parent="1" vertex="1">
          <mxGeometry x="232" y="1328" width="10" height="271" as="geometry" />
        </mxCell>
        <mxCell id="V8SG-uhgvCbZZo700kkN-2" value="" style="endArrow=classic;html=1;rounded=0;" parent="1" edge="1">
          <mxGeometry width="50" height="50" relative="1" as="geometry">
            <mxPoint x="408" y="1374" as="sourcePoint" />
            <mxPoint x="525" y="1374" as="targetPoint" />
          </mxGeometry>
        </mxCell>
        <mxCell id="V8SG-uhgvCbZZo700kkN-3" style="edgeStyle=orthogonalEdgeStyle;rounded=0;orthogonalLoop=1;jettySize=auto;html=1;exitX=0.5;exitY=1;exitDx=0;exitDy=0;" parent="1" source="UV9iQ9PNpnjXZsfX_OM_-72" target="UV9iQ9PNpnjXZsfX_OM_-72" edge="1">
          <mxGeometry relative="1" as="geometry" />
        </mxCell>
        <mxCell id="V8SG-uhgvCbZZo700kkN-4" value="" style="endArrow=classic;html=1;rounded=0;" parent="1" edge="1">
          <mxGeometry width="50" height="50" relative="1" as="geometry">
            <mxPoint x="538" y="1383.05" as="sourcePoint" />
            <mxPoint x="620" y="1383" as="targetPoint" />
          </mxGeometry>
        </mxCell>
        <mxCell id="V8SG-uhgvCbZZo700kkN-7" value="" style="endArrow=none;dashed=1;html=1;rounded=0;" parent="1" target="V8SG-uhgvCbZZo700kkN-6" edge="1">
          <mxGeometry width="50" height="50" relative="1" as="geometry">
            <mxPoint x="530" y="1770" as="sourcePoint" />
            <mxPoint x="530.9685039370077" y="544.9999999999999" as="targetPoint" />
          </mxGeometry>
        </mxCell>
        <mxCell id="V8SG-uhgvCbZZo700kkN-6" value="" style="rounded=0;whiteSpace=wrap;html=1;" parent="1" vertex="1">
          <mxGeometry x="526" y="1365" width="10" height="224" as="geometry" />
        </mxCell>
        <mxCell id="V8SG-uhgvCbZZo700kkN-9" value="" style="endArrow=classic;html=1;rounded=0;" parent="1" edge="1">
          <mxGeometry width="50" height="50" relative="1" as="geometry">
            <mxPoint x="538" y="1434" as="sourcePoint" />
            <mxPoint x="716" y="1434" as="targetPoint" />
          </mxGeometry>
        </mxCell>
        <mxCell id="V8SG-uhgvCbZZo700kkN-10" value="&lt;span style=&quot;font-size: 11px;&quot;&gt;update package (&lt;/span&gt;&lt;span style=&quot;background-color: initial; font-size: 11px;&quot;&gt;price, name,&lt;/span&gt;&lt;span style=&quot;background-color: initial; font-size: 11px;&quot;&gt;&amp;nbsp;description)&lt;/span&gt;" style="text;html=1;align=center;verticalAlign=middle;whiteSpace=wrap;rounded=0;fillColor=#FFFFFF;" parent="1" vertex="1">
          <mxGeometry x="545" y="1402.5" width="171" height="30" as="geometry" />
        </mxCell>
        <mxCell id="V8SG-uhgvCbZZo700kkN-13" value="" style="endArrow=none;dashed=1;html=1;rounded=0;" parent="1" target="V8SG-uhgvCbZZo700kkN-12" edge="1">
          <mxGeometry width="50" height="50" relative="1" as="geometry">
            <mxPoint x="720" y="1770" as="sourcePoint" />
            <mxPoint x="720" y="370" as="targetPoint" />
          </mxGeometry>
        </mxCell>
        <mxCell id="V8SG-uhgvCbZZo700kkN-12" value="" style="rounded=0;whiteSpace=wrap;html=1;" parent="1" vertex="1">
          <mxGeometry x="716" y="1419" width="10" height="170" as="geometry" />
        </mxCell>
        <mxCell id="V8SG-uhgvCbZZo700kkN-14" value="" style="endArrow=classic;html=1;rounded=0;" parent="1" edge="1">
          <mxGeometry width="50" height="50" relative="1" as="geometry">
            <mxPoint x="726" y="1490.44" as="sourcePoint" />
            <mxPoint x="930" y="1489" as="targetPoint" />
          </mxGeometry>
        </mxCell>
        <mxCell id="V8SG-uhgvCbZZo700kkN-15" value="&lt;span style=&quot;font-size: 11px;&quot;&gt;update package (&lt;/span&gt;&lt;span style=&quot;background-color: initial; font-size: 11px;&quot;&gt;price, name,&amp;nbsp;&lt;/span&gt;&lt;span style=&quot;background-color: initial; font-size: 11px;&quot;&gt;description)&lt;/span&gt;" style="text;html=1;align=center;verticalAlign=middle;whiteSpace=wrap;rounded=0;fillColor=#FFFFFF;" parent="1" vertex="1">
          <mxGeometry x="733" y="1455" width="192" height="30" as="geometry" />
        </mxCell>
        <mxCell id="V8SG-uhgvCbZZo700kkN-16" value="&lt;span style=&quot;font-size: 11px;&quot;&gt;save package&amp;nbsp;&lt;/span&gt;&lt;div&gt;&lt;span style=&quot;font-size: 11px;&quot;&gt;(&lt;/span&gt;&lt;span style=&quot;background-color: initial; font-size: 11px;&quot;&gt;&amp;nbsp;price,&lt;/span&gt;&lt;span style=&quot;background-color: initial; font-size: 11px;&quot;&gt;&amp;nbsp;name,&amp;nbsp;&lt;/span&gt;&lt;/div&gt;&lt;div&gt;&lt;span style=&quot;background-color: initial; font-size: 11px;&quot;&gt;description)&lt;/span&gt;&lt;/div&gt;" style="text;html=1;align=center;verticalAlign=middle;whiteSpace=wrap;rounded=0;fillColor=#FFFFFF;" parent="1" vertex="1">
          <mxGeometry x="944" y="1460" width="93" height="58" as="geometry" />
        </mxCell>
        <mxCell id="V8SG-uhgvCbZZo700kkN-18" value="" style="html=1;labelBackgroundColor=#ffffff;startArrow=none;startFill=0;startSize=6;endArrow=classic;endFill=1;endSize=6;jettySize=auto;orthogonalLoop=1;strokeWidth=1;dashed=1;fontSize=14;rounded=0;" parent="1" edge="1">
          <mxGeometry width="60" height="60" relative="1" as="geometry">
            <mxPoint x="930" y="1554.25" as="sourcePoint" />
            <mxPoint x="730" y="1554" as="targetPoint" />
          </mxGeometry>
        </mxCell>
        <mxCell id="V8SG-uhgvCbZZo700kkN-20" value="&lt;span style=&quot;font-size: 11px;&quot;&gt;package successfully updated&amp;nbsp;&lt;/span&gt;&lt;div&gt;&lt;span style=&quot;font-size: 11px;&quot;&gt;(&lt;/span&gt;&lt;span style=&quot;background-color: initial; font-size: 11px;&quot;&gt;price, name,&lt;/span&gt;&lt;span style=&quot;background-color: initial; font-size: 11px;&quot;&gt;&amp;nbsp;description)&lt;/span&gt;&lt;/div&gt;" style="text;html=1;align=center;verticalAlign=middle;whiteSpace=wrap;rounded=0;fillColor=#FFFFFF;" parent="1" vertex="1">
          <mxGeometry x="733" y="1521" width="192" height="30" as="geometry" />
        </mxCell>
        <mxCell id="V8SG-uhgvCbZZo700kkN-21" value="" style="html=1;labelBackgroundColor=#ffffff;startArrow=none;startFill=0;startSize=6;endArrow=classic;endFill=1;endSize=6;jettySize=auto;orthogonalLoop=1;strokeWidth=1;dashed=1;fontSize=14;rounded=0;" parent="1" edge="1">
          <mxGeometry width="60" height="60" relative="1" as="geometry">
            <mxPoint x="715" y="1569.25" as="sourcePoint" />
            <mxPoint x="540" y="1569" as="targetPoint" />
          </mxGeometry>
        </mxCell>
        <mxCell id="V8SG-uhgvCbZZo700kkN-22" value="&lt;span style=&quot;font-size: 11px;&quot;&gt;package successfully updated (&lt;/span&gt;&lt;span style=&quot;background-color: initial; font-size: 11px;&quot;&gt;price, name,&amp;nbsp;&lt;/span&gt;&lt;span style=&quot;background-color: initial; font-size: 11px;&quot;&gt;description)&lt;/span&gt;" style="text;html=1;align=center;verticalAlign=middle;whiteSpace=wrap;rounded=0;fillColor=#FFFFFF;" parent="1" vertex="1">
          <mxGeometry x="558" y="1527" width="150" height="40" as="geometry" />
        </mxCell>
        <mxCell id="V8SG-uhgvCbZZo700kkN-24" value="" style="html=1;labelBackgroundColor=#ffffff;startArrow=none;startFill=0;startSize=6;endArrow=classic;endFill=1;endSize=6;jettySize=auto;orthogonalLoop=1;strokeWidth=1;dashed=1;fontSize=14;rounded=0;" parent="1" edge="1">
          <mxGeometry width="60" height="60" relative="1" as="geometry">
            <mxPoint x="526" y="1579.25" as="sourcePoint" />
            <mxPoint x="400" y="1579" as="targetPoint" />
          </mxGeometry>
        </mxCell>
        <mxCell id="V8SG-uhgvCbZZo700kkN-25" value="&lt;span style=&quot;font-size: 11px;&quot;&gt;package successfully&amp;nbsp;&lt;/span&gt;&lt;div&gt;&lt;span style=&quot;font-size: 11px;&quot;&gt;updated (&lt;/span&gt;&lt;span style=&quot;background-color: initial; font-size: 11px;&quot;&gt;price, name,&amp;nbsp;&lt;/span&gt;&lt;/div&gt;&lt;div&gt;&lt;span style=&quot;background-color: initial; font-size: 11px;&quot;&gt;&amp;nbsp;description)&lt;/span&gt;&lt;/div&gt;" style="text;html=1;align=center;verticalAlign=middle;whiteSpace=wrap;rounded=0;fillColor=#FFFFFF;" parent="1" vertex="1">
          <mxGeometry x="406.5" y="1520" width="118" height="53" as="geometry" />
        </mxCell>
        <mxCell id="V8SG-uhgvCbZZo700kkN-26" value="&lt;span style=&quot;font-size: 11px;&quot;&gt;package successfully&amp;nbsp;&lt;/span&gt;&lt;div&gt;&lt;span style=&quot;font-size: 11px;&quot;&gt;updated (&lt;/span&gt;&lt;span style=&quot;background-color: initial; font-size: 11px;&quot;&gt;price,&lt;/span&gt;&lt;span style=&quot;background-color: initial; font-size: 11px;&quot;&gt;&amp;nbsp;name,&amp;nbsp;&lt;/span&gt;&lt;/div&gt;&lt;div&gt;&lt;span style=&quot;background-color: initial; font-size: 11px;&quot;&gt;description)&lt;/span&gt;&lt;/div&gt;" style="text;html=1;align=center;verticalAlign=middle;whiteSpace=wrap;rounded=0;fillColor=#FFFFFF;" parent="1" vertex="1">
          <mxGeometry x="257" y="1543" width="127.25" height="43" as="geometry" />
        </mxCell>
        <mxCell id="V8SG-uhgvCbZZo700kkN-31" value="&lt;span style=&quot;font-size: 11px;&quot;&gt;update package&amp;nbsp;&lt;/span&gt;&lt;div&gt;&lt;span style=&quot;font-size: 11px;&quot;&gt;(&lt;/span&gt;&lt;span style=&quot;font-size: 11px; background-color: initial;&quot;&gt;price, name,&amp;nbsp;&lt;/span&gt;&lt;div&gt;&lt;span style=&quot;font-size: 11px;&quot;&gt;description)&lt;/span&gt;&lt;/div&gt;&lt;/div&gt;" style="text;html=1;align=center;verticalAlign=middle;whiteSpace=wrap;rounded=0;fillColor=#FFFFFF;" parent="1" vertex="1">
          <mxGeometry x="259" y="1306" width="118" height="50" as="geometry" />
        </mxCell>
        <mxCell id="V8SG-uhgvCbZZo700kkN-32" value="&lt;span style=&quot;font-size: 11px;&quot;&gt;update package&lt;/span&gt;&lt;div&gt;&lt;span style=&quot;font-size: 11px;&quot;&gt;&amp;nbsp;(&lt;/span&gt;&lt;span style=&quot;font-size: 11px; background-color: initial;&quot;&gt;price, name,&amp;nbsp;&lt;/span&gt;&lt;div&gt;&lt;span style=&quot;font-size: 11px;&quot;&gt;description)&lt;/span&gt;&lt;/div&gt;&lt;/div&gt;" style="text;html=1;align=center;verticalAlign=middle;whiteSpace=wrap;rounded=0;fillColor=#FFFFFF;" parent="1" vertex="1">
          <mxGeometry x="96" y="1289" width="118" height="50" as="geometry" />
        </mxCell>
        <mxCell id="V8SG-uhgvCbZZo700kkN-33" value="&lt;span style=&quot;font-size: 11px;&quot;&gt;save&amp;nbsp;&lt;/span&gt;&lt;div&gt;&lt;span style=&quot;font-size: 11px;&quot;&gt;package&lt;/span&gt;&lt;/div&gt;" style="text;html=1;align=center;verticalAlign=middle;whiteSpace=wrap;rounded=0;fillColor=#FFFFFF;" parent="1" vertex="1">
          <mxGeometry x="542" y="1343" width="70" height="39" as="geometry" />
        </mxCell>
        <mxCell id="V8SG-uhgvCbZZo700kkN-34" value="&lt;span style=&quot;font-size: 11px;&quot;&gt;save&amp;nbsp;&lt;/span&gt;&lt;div&gt;&lt;span style=&quot;font-size: 11px;&quot;&gt;package&lt;/span&gt;&lt;/div&gt;" style="text;html=1;align=center;verticalAlign=middle;whiteSpace=wrap;rounded=0;fillColor=#FFFFFF;" parent="1" vertex="1">
          <mxGeometry x="729" y="1402.5" width="70" height="39" as="geometry" />
        </mxCell>
        <mxCell id="V8SG-uhgvCbZZo700kkN-35" value="" style="endArrow=classic;html=1;rounded=0;" parent="1" edge="1">
          <mxGeometry width="50" height="50" relative="1" as="geometry">
            <mxPoint x="726" y="1441.55" as="sourcePoint" />
            <mxPoint x="800" y="1442" as="targetPoint" />
          </mxGeometry>
        </mxCell>
        <mxCell id="V8SG-uhgvCbZZo700kkN-37" value="" style="html=1;labelBackgroundColor=#ffffff;startArrow=none;startFill=0;startSize=6;endArrow=classic;endFill=1;endSize=6;jettySize=auto;orthogonalLoop=1;strokeWidth=1;dashed=1;fontSize=14;rounded=0;" parent="1" edge="1">
          <mxGeometry width="60" height="60" relative="1" as="geometry">
            <mxPoint x="395.5" y="1196.5" as="sourcePoint" />
            <mxPoint x="245.5" y="1196" as="targetPoint" />
          </mxGeometry>
        </mxCell>
        <mxCell id="V8SG-uhgvCbZZo700kkN-38" value="&lt;span style=&quot;font-size: 11px;&quot;&gt;view package&lt;/span&gt;&lt;div&gt;&lt;span style=&quot;font-size: 11px;&quot;&gt;&amp;nbsp;(packageID,&amp;nbsp;&lt;/span&gt;&lt;/div&gt;&lt;div&gt;&lt;span style=&quot;font-size: 11px; background-color: initial;&quot;&gt;price, name,&amp;nbsp;&lt;/span&gt;&lt;div&gt;&lt;span style=&quot;font-size: 11px;&quot;&gt;description)&lt;/span&gt;&lt;/div&gt;&lt;/div&gt;" style="text;html=1;align=center;verticalAlign=middle;whiteSpace=wrap;rounded=0;fillColor=#FFFFFF;" parent="1" vertex="1">
          <mxGeometry x="107.5" y="866" width="118" height="50" as="geometry" />
        </mxCell>
        <mxCell id="V8SG-uhgvCbZZo700kkN-41" value="" style="endArrow=classic;html=1;rounded=0;" parent="1" edge="1">
          <mxGeometry width="50" height="50" relative="1" as="geometry">
            <mxPoint x="413.5" y="964" as="sourcePoint" />
            <mxPoint x="528" y="964" as="targetPoint" />
          </mxGeometry>
        </mxCell>
        <mxCell id="V8SG-uhgvCbZZo700kkN-42" value="" style="endArrow=classic;html=1;rounded=0;" parent="1" edge="1">
          <mxGeometry width="50" height="50" relative="1" as="geometry">
            <mxPoint x="542" y="980" as="sourcePoint" />
            <mxPoint x="619.5" y="980" as="targetPoint" />
          </mxGeometry>
        </mxCell>
        <mxCell id="V8SG-uhgvCbZZo700kkN-43" value="" style="endArrow=classic;html=1;rounded=0;" parent="1" edge="1">
          <mxGeometry width="50" height="50" relative="1" as="geometry">
            <mxPoint x="545" y="1037" as="sourcePoint" />
            <mxPoint x="719.5" y="1037" as="targetPoint" />
          </mxGeometry>
        </mxCell>
        <mxCell id="CiNBgsA2vVy60cbmpa4H-1" value="&lt;span style=&quot;font-size: 11px;&quot;&gt;view package&lt;/span&gt;&lt;div&gt;&lt;span style=&quot;font-size: 11px;&quot;&gt;&amp;nbsp;(packageID,&amp;nbsp;&lt;/span&gt;&lt;span style=&quot;background-color: initial; font-size: 11px;&quot;&gt;price, name,&amp;nbsp;&lt;/span&gt;&lt;span style=&quot;background-color: initial; font-size: 11px;&quot;&gt;description)&lt;/span&gt;&lt;/div&gt;" style="text;html=1;align=center;verticalAlign=middle;whiteSpace=wrap;rounded=0;fillColor=#FFFFFF;" parent="1" vertex="1">
          <mxGeometry x="263.5" y="899" width="118" height="40" as="geometry" />
        </mxCell>
        <mxCell id="CiNBgsA2vVy60cbmpa4H-2" value="&lt;span style=&quot;font-size: 11px;&quot;&gt;view package&lt;/span&gt;&lt;div&gt;&lt;span style=&quot;font-size: 11px;&quot;&gt;&amp;nbsp;(packageID,&amp;nbsp;&lt;/span&gt;&lt;span style=&quot;background-color: initial; font-size: 11px;&quot;&gt;price, name,&amp;nbsp;&lt;/span&gt;&lt;span style=&quot;background-color: initial; font-size: 11px;&quot;&gt;description)&lt;/span&gt;&lt;/div&gt;" style="text;html=1;align=center;verticalAlign=middle;whiteSpace=wrap;rounded=0;fillColor=#FFFFFF;" parent="1" vertex="1">
          <mxGeometry x="410.5" y="920.19" width="118" height="40" as="geometry" />
        </mxCell>
        <mxCell id="CiNBgsA2vVy60cbmpa4H-3" value="&lt;span style=&quot;font-size: 11px;&quot;&gt;view package&lt;/span&gt;&lt;span style=&quot;font-size: 11px; background-color: initial;&quot;&gt;(packageID,&lt;/span&gt;&lt;div&gt;&lt;span style=&quot;font-size: 11px;&quot;&gt;&amp;nbsp;&lt;/span&gt;&lt;span style=&quot;background-color: initial; font-size: 11px;&quot;&gt;price, name,&amp;nbsp;&lt;/span&gt;&lt;span style=&quot;background-color: initial; font-size: 11px;&quot;&gt;description)&lt;/span&gt;&lt;/div&gt;" style="text;html=1;align=center;verticalAlign=middle;whiteSpace=wrap;rounded=0;fillColor=#FFFFFF;" parent="1" vertex="1">
          <mxGeometry x="554.5" y="999.55" width="146" height="35.09" as="geometry" />
        </mxCell>
        <mxCell id="CiNBgsA2vVy60cbmpa4H-4" value="&lt;span style=&quot;font-size: 11px;&quot;&gt;view package&lt;/span&gt;&lt;span style=&quot;background-color: initial; font-size: 11px;&quot;&gt;&amp;nbsp;(packageID,&lt;/span&gt;&lt;span style=&quot;background-color: initial; font-size: 11px;&quot;&gt;&amp;nbsp;&lt;/span&gt;&lt;span style=&quot;background-color: initial; font-size: 11px;&quot;&gt;price, name,&amp;nbsp;&lt;/span&gt;&lt;span style=&quot;background-color: initial; font-size: 11px;&quot;&gt;description)&lt;/span&gt;" style="text;html=1;align=center;verticalAlign=middle;whiteSpace=wrap;rounded=0;fillColor=#FFFFFF;" parent="1" vertex="1">
          <mxGeometry x="734.5" y="1064" width="193" height="34" as="geometry" />
        </mxCell>
        <mxCell id="V8SG-uhgvCbZZo700kkN-44" value="" style="endArrow=classic;html=1;rounded=0;" parent="1" edge="1">
          <mxGeometry width="50" height="50" relative="1" as="geometry">
            <mxPoint x="730.5" y="1103.41" as="sourcePoint" />
            <mxPoint x="924.5" y="1103" as="targetPoint" />
          </mxGeometry>
        </mxCell>
        <mxCell id="CiNBgsA2vVy60cbmpa4H-5" value="&lt;span style=&quot;font-size: 11px;&quot;&gt;read package&lt;/span&gt;&lt;div&gt;&lt;span style=&quot;font-size: 11px;&quot;&gt;&amp;nbsp;(packageID,&amp;nbsp;&lt;/span&gt;&lt;/div&gt;&lt;div&gt;&lt;span style=&quot;font-size: 11px; background-color: initial;&quot;&gt;price, name,&amp;nbsp;&lt;/span&gt;&lt;div&gt;&lt;span style=&quot;font-size: 11px;&quot;&gt;description)&lt;/span&gt;&lt;/div&gt;&lt;/div&gt;" style="text;html=1;align=center;verticalAlign=middle;whiteSpace=wrap;rounded=0;fillColor=#FFFFFF;" parent="1" vertex="1">
          <mxGeometry x="951.75" y="1070" width="79.5" height="50" as="geometry" />
        </mxCell>
        <mxCell id="CiNBgsA2vVy60cbmpa4H-6" value="" style="endArrow=classic;html=1;rounded=0;" parent="1" edge="1">
          <mxGeometry width="50" height="50" relative="1" as="geometry">
            <mxPoint x="725" y="1048" as="sourcePoint" />
            <mxPoint x="800.75" y="1048" as="targetPoint" />
          </mxGeometry>
        </mxCell>
        <mxCell id="CiNBgsA2vVy60cbmpa4H-9" value="&lt;span style=&quot;font-size: 11px;&quot;&gt;display package&lt;/span&gt;&lt;span style=&quot;background-color: initial; font-size: 11px;&quot;&gt;&amp;nbsp;(packageID,&lt;/span&gt;&lt;span style=&quot;background-color: initial; font-size: 11px;&quot;&gt;&amp;nbsp;&lt;/span&gt;&lt;span style=&quot;background-color: initial; font-size: 11px;&quot;&gt;price, name,&amp;nbsp;&lt;/span&gt;&lt;span style=&quot;background-color: initial; font-size: 11px;&quot;&gt;description)&lt;/span&gt;" style="text;html=1;align=center;verticalAlign=middle;whiteSpace=wrap;rounded=0;fillColor=#FFFFFF;" parent="1" vertex="1">
          <mxGeometry x="741" y="1119" width="180" height="34" as="geometry" />
        </mxCell>
        <mxCell id="CiNBgsA2vVy60cbmpa4H-13" value="" style="html=1;labelBackgroundColor=#ffffff;startArrow=none;startFill=0;startSize=6;endArrow=classic;endFill=1;endSize=6;jettySize=auto;orthogonalLoop=1;strokeWidth=1;dashed=1;fontSize=14;rounded=0;" parent="1" edge="1">
          <mxGeometry width="60" height="60" relative="1" as="geometry">
            <mxPoint x="730.5" y="1166" as="sourcePoint" />
            <mxPoint x="540.5" y="1166" as="targetPoint" />
          </mxGeometry>
        </mxCell>
        <mxCell id="CiNBgsA2vVy60cbmpa4H-14" value="" style="html=1;labelBackgroundColor=#ffffff;startArrow=none;startFill=0;startSize=6;endArrow=classic;endFill=1;endSize=6;jettySize=auto;orthogonalLoop=1;strokeWidth=1;dashed=1;fontSize=14;rounded=0;" parent="1" edge="1">
          <mxGeometry width="60" height="60" relative="1" as="geometry">
            <mxPoint x="531.5" y="1189" as="sourcePoint" />
            <mxPoint x="411.5" y="1189" as="targetPoint" />
          </mxGeometry>
        </mxCell>
        <mxCell id="CiNBgsA2vVy60cbmpa4H-15" value="&lt;span style=&quot;font-size: 11px;&quot;&gt;display package&lt;/span&gt;&lt;span style=&quot;background-color: initial; font-size: 11px;&quot;&gt;&amp;nbsp;(packageID,&lt;/span&gt;&lt;span style=&quot;background-color: initial; font-size: 11px;&quot;&gt;&amp;nbsp;&lt;/span&gt;&lt;div&gt;&lt;span style=&quot;background-color: initial; font-size: 11px;&quot;&gt;price, name,&amp;nbsp;&lt;/span&gt;&lt;span style=&quot;background-color: initial; font-size: 11px;&quot;&gt;description)&lt;/span&gt;&lt;/div&gt;" style="text;html=1;align=center;verticalAlign=middle;whiteSpace=wrap;rounded=0;fillColor=#FFFFFF;" parent="1" vertex="1">
          <mxGeometry x="545.5" y="1129" width="180" height="34" as="geometry" />
        </mxCell>
        <mxCell id="CiNBgsA2vVy60cbmpa4H-16" value="&lt;span style=&quot;font-size: 11px;&quot;&gt;display package&lt;/span&gt;&lt;span style=&quot;background-color: initial; font-size: 11px;&quot;&gt;&amp;nbsp;&lt;/span&gt;&lt;div&gt;&lt;span style=&quot;background-color: initial; font-size: 11px;&quot;&gt;(packageID&lt;/span&gt;&lt;div&gt;&lt;span style=&quot;background-color: initial; font-size: 11px;&quot;&gt;,&lt;/span&gt;&lt;span style=&quot;background-color: initial; font-size: 11px;&quot;&gt;&amp;nbsp;&lt;/span&gt;&lt;span style=&quot;background-color: initial; font-size: 11px;&quot;&gt;price, name,&lt;/span&gt;&lt;/div&gt;&lt;div&gt;&lt;span style=&quot;background-color: initial; font-size: 11px;&quot;&gt;&amp;nbsp;&lt;/span&gt;&lt;span style=&quot;background-color: initial; font-size: 11px;&quot;&gt;description)&lt;/span&gt;&lt;/div&gt;&lt;/div&gt;" style="text;html=1;align=center;verticalAlign=middle;whiteSpace=wrap;rounded=0;fillColor=#FFFFFF;" parent="1" vertex="1">
          <mxGeometry x="427.5" y="1142" width="92" height="34" as="geometry" />
        </mxCell>
        <mxCell id="CiNBgsA2vVy60cbmpa4H-17" value="&lt;span style=&quot;font-size: 11px;&quot;&gt;display package&lt;/span&gt;&lt;span style=&quot;background-color: initial; font-size: 11px;&quot;&gt;&amp;nbsp;&lt;/span&gt;&lt;div&gt;&lt;span style=&quot;background-color: initial; font-size: 11px;&quot;&gt;(packageID&lt;/span&gt;&lt;div&gt;&lt;span style=&quot;background-color: initial; font-size: 11px;&quot;&gt;,&lt;/span&gt;&lt;span style=&quot;background-color: initial; font-size: 11px;&quot;&gt;&amp;nbsp;&lt;/span&gt;&lt;span style=&quot;background-color: initial; font-size: 11px;&quot;&gt;price, name,&lt;/span&gt;&lt;/div&gt;&lt;div&gt;&lt;span style=&quot;background-color: initial; font-size: 11px;&quot;&gt;&amp;nbsp;&lt;/span&gt;&lt;span style=&quot;background-color: initial; font-size: 11px;&quot;&gt;description)&lt;/span&gt;&lt;/div&gt;&lt;/div&gt;" style="text;html=1;align=center;verticalAlign=middle;whiteSpace=wrap;rounded=0;fillColor=#FFFFFF;" parent="1" vertex="1">
          <mxGeometry x="277.12" y="1145" width="92" height="34" as="geometry" />
        </mxCell>
        <mxCell id="CiNBgsA2vVy60cbmpa4H-19" value="" style="endArrow=none;dashed=1;html=1;rounded=0;" parent="1" source="V8SG-uhgvCbZZo700kkN-6" target="CiNBgsA2vVy60cbmpa4H-18" edge="1">
          <mxGeometry width="50" height="50" relative="1" as="geometry">
            <mxPoint x="531" y="1365" as="sourcePoint" />
            <mxPoint x="530.9685039370077" y="544.9999999999999" as="targetPoint" />
          </mxGeometry>
        </mxCell>
        <mxCell id="CiNBgsA2vVy60cbmpa4H-18" value="" style="rounded=0;whiteSpace=wrap;html=1;" parent="1" vertex="1">
          <mxGeometry x="530" y="956" width="10" height="240" as="geometry" />
        </mxCell>
        <mxCell id="CiNBgsA2vVy60cbmpa4H-22" value="" style="endArrow=none;dashed=1;html=1;rounded=0;" parent="1" source="V8SG-uhgvCbZZo700kkN-12" target="CiNBgsA2vVy60cbmpa4H-20" edge="1">
          <mxGeometry width="50" height="50" relative="1" as="geometry">
            <mxPoint x="721" y="1419" as="sourcePoint" />
            <mxPoint x="720" y="370" as="targetPoint" />
          </mxGeometry>
        </mxCell>
        <mxCell id="CiNBgsA2vVy60cbmpa4H-20" value="" style="rounded=0;whiteSpace=wrap;html=1;" parent="1" vertex="1">
          <mxGeometry x="717.5" y="1006" width="10" height="170" as="geometry" />
        </mxCell>
        <mxCell id="CiNBgsA2vVy60cbmpa4H-23" value="&lt;span style=&quot;font-size: 11px;&quot;&gt;read package&lt;/span&gt;&lt;div&gt;&lt;br&gt;&lt;/div&gt;" style="text;html=1;align=center;verticalAlign=middle;whiteSpace=wrap;rounded=0;fillColor=#FFFFFF;" parent="1" vertex="1">
          <mxGeometry x="542.5" y="950" width="78" height="27" as="geometry" />
        </mxCell>
        <mxCell id="CiNBgsA2vVy60cbmpa4H-24" value="&lt;span style=&quot;font-size: 11px;&quot;&gt;read package&lt;/span&gt;&lt;div&gt;&lt;br&gt;&lt;/div&gt;" style="text;html=1;align=center;verticalAlign=middle;whiteSpace=wrap;rounded=0;fillColor=#FFFFFF;" parent="1" vertex="1">
          <mxGeometry x="734.5" y="1021" width="64" height="27" as="geometry" />
        </mxCell>
        <mxCell id="CiNBgsA2vVy60cbmpa4H-33" value="" style="endArrow=none;dashed=1;html=1;rounded=0;" parent="1" source="CiNBgsA2vVy60cbmpa4H-20" target="CiNBgsA2vVy60cbmpa4H-32" edge="1">
          <mxGeometry width="50" height="50" relative="1" as="geometry">
            <mxPoint x="720" y="950" as="sourcePoint" />
            <mxPoint x="720" y="370" as="targetPoint" />
          </mxGeometry>
        </mxCell>
        <mxCell id="CiNBgsA2vVy60cbmpa4H-42" value="" style="html=1;labelBackgroundColor=#ffffff;startArrow=none;startFill=0;startSize=6;endArrow=classic;endFill=1;endSize=6;jettySize=auto;orthogonalLoop=1;strokeWidth=1;dashed=1;fontSize=14;rounded=0;" parent="1" edge="1">
          <mxGeometry width="60" height="60" relative="1" as="geometry">
            <mxPoint x="710" y="242" as="sourcePoint" />
            <mxPoint x="534.5" y="242.19" as="targetPoint" />
          </mxGeometry>
        </mxCell>
        <mxCell id="CiNBgsA2vVy60cbmpa4H-45" value="&lt;span style=&quot;font-size: 11px;&quot;&gt;package successfully created&lt;/span&gt;" style="text;html=1;align=center;verticalAlign=middle;whiteSpace=wrap;rounded=0;" parent="1" vertex="1">
          <mxGeometry x="550" y="218" width="151" height="30" as="geometry" />
        </mxCell>
        <mxCell id="CiNBgsA2vVy60cbmpa4H-46" value="enter package details" style="edgeLabel;html=1;align=center;verticalAlign=middle;resizable=0;points=[];" parent="1" vertex="1" connectable="0">
          <mxGeometry x="155.00039339029922" y="270.5001971600277" as="geometry">
            <mxPoint x="3" y="1" as="offset" />
          </mxGeometry>
        </mxCell>
        <mxCell id="a8nFzF8CAE4txDbaKH1Y-1" value="&lt;b&gt;(Manager)&amp;nbsp; Package&lt;/b&gt;" style="text;html=1;align=center;verticalAlign=middle;whiteSpace=wrap;rounded=0;" vertex="1" parent="1">
          <mxGeometry width="200" height="30" as="geometry" />
        </mxCell>
      </root>
    </mxGraphModel>
  </diagram>
</mxfile>
